<?xml version="1.0" encoding="UTF-8" standalone="no"?>
<svg xmlns:dc="http://purl.org/dc/elements/1.1/" xmlns:cc="http://creativecommons.org/ns#" xmlns:rdf="http://www.w3.org/1999/02/22-rdf-syntax-ns#" xmlns:svg="http://www.w3.org/2000/svg" xmlns="http://www.w3.org/2000/svg" xmlns:sodipodi="http://sodipodi.sourceforge.net/DTD/sodipodi-0.dtd" xmlns:inkscape="http://www.inkscape.org/namespaces/inkscape" width="100" height="100" id="svg7960" version="1.1" inkscape:version="0.48.4 r9939" sodipodi:docname="COD_.svg">
  <defs id="defs7962">
    <clipPath clipPathUnits="userSpaceOnUse" id="clipPath3094-8">
      <path style="font-size:medium;font-style:normal;font-variant:normal;font-weight:normal;font-stretch:normal;text-indent:0;text-align:start;text-decoration:none;line-height:normal;letter-spacing:normal;word-spacing:normal;text-transform:none;direction:ltr;block-progression:tb;writing-mode:lr-tb;text-anchor:start;baseline-shift:baseline;color:#000000;fill:#ee0028;fill-opacity:1;stroke:none;stroke-width:1px;marker:none;visibility:visible;display:inline;overflow:visible;enable-background:accumulate;font-family:Sans;-inkscape-font-specification:Sans" d="m 1475.7812,430.15625 0,1 7.4688,0 0,-1 -7.4688,0 z m -1.6562,2.53125 0,1 10.7812,0 0,-1 -10.7812,0 z m -0.625,2.5 0,1 12.0625,0 0,-1 -12.0625,0 z m 0.625,2.53125 0,1 10.7812,0 0,-1 -10.7812,0 z m 0,2.53125 0,1 10.7812,0 0,-1 -10.7812,0 z" id="path3096-8" inkscape:connector-curvature="0"/>
    </clipPath>
    <clipPath clipPathUnits="userSpaceOnUse" id="clipPath3094-8-2">
      <path style="font-size:medium;font-style:normal;font-variant:normal;font-weight:normal;font-stretch:normal;text-indent:0;text-align:start;text-decoration:none;line-height:normal;letter-spacing:normal;word-spacing:normal;text-transform:none;direction:ltr;block-progression:tb;writing-mode:lr-tb;text-anchor:start;baseline-shift:baseline;color:#000000;fill:#ee0028;fill-opacity:1;stroke:none;stroke-width:1px;marker:none;visibility:visible;display:inline;overflow:visible;enable-background:accumulate;font-family:Sans;-inkscape-font-specification:Sans" d="m 1475.7812,430.15625 0,1 7.4688,0 0,-1 -7.4688,0 z m -1.6562,2.53125 0,1 10.7812,0 0,-1 -10.7812,0 z m -0.625,2.5 0,1 12.0625,0 0,-1 -12.0625,0 z m 0.625,2.53125 0,1 10.7812,0 0,-1 -10.7812,0 z m 0,2.53125 0,1 10.7812,0 0,-1 -10.7812,0 z" id="path3096-8-4" inkscape:connector-curvature="0"/>
    </clipPath>
    <clipPath clipPathUnits="userSpaceOnUse" id="clipPath3094-8-2-4">
      <path style="font-size:medium;font-style:normal;font-variant:normal;font-weight:normal;font-stretch:normal;text-indent:0;text-align:start;text-decoration:none;line-height:normal;letter-spacing:normal;word-spacing:normal;text-transform:none;direction:ltr;block-progression:tb;writing-mode:lr-tb;text-anchor:start;baseline-shift:baseline;color:#000000;fill:#ee0028;fill-opacity:1;stroke:none;stroke-width:1px;marker:none;visibility:visible;display:inline;overflow:visible;enable-background:accumulate;font-family:Sans;-inkscape-font-specification:Sans" d="m 1475.7812,430.15625 0,1 7.4688,0 0,-1 -7.4688,0 z m -1.6562,2.53125 0,1 10.7812,0 0,-1 -10.7812,0 z m -0.625,2.5 0,1 12.0625,0 0,-1 -12.0625,0 z m 0.625,2.53125 0,1 10.7812,0 0,-1 -10.7812,0 z m 0,2.53125 0,1 10.7812,0 0,-1 -10.7812,0 z" id="path3096-8-4-0" inkscape:connector-curvature="0"/>
    </clipPath>
    <clipPath clipPathUnits="userSpaceOnUse" id="clipPath3094-8-7">
      <path style="font-size:medium;font-style:normal;font-variant:normal;font-weight:normal;font-stretch:normal;text-indent:0;text-align:start;text-decoration:none;line-height:normal;letter-spacing:normal;word-spacing:normal;text-transform:none;direction:ltr;block-progression:tb;writing-mode:lr-tb;text-anchor:start;baseline-shift:baseline;color:#000000;fill:#ee0028;fill-opacity:1;stroke:none;stroke-width:1px;marker:none;visibility:visible;display:inline;overflow:visible;enable-background:accumulate;font-family:Sans;-inkscape-font-specification:Sans" d="m 1475.7812,430.15625 0,1 7.4688,0 0,-1 -7.4688,0 z m -1.6562,2.53125 0,1 10.7812,0 0,-1 -10.7812,0 z m -0.625,2.5 0,1 12.0625,0 0,-1 -12.0625,0 z m 0.625,2.53125 0,1 10.7812,0 0,-1 -10.7812,0 z m 0,2.53125 0,1 10.7812,0 0,-1 -10.7812,0 z" id="path3096-8-6" inkscape:connector-curvature="0"/>
    </clipPath>
    <clipPath clipPathUnits="userSpaceOnUse" id="clipPath3094-8-3">
      <path style="font-size:medium;font-style:normal;font-variant:normal;font-weight:normal;font-stretch:normal;text-indent:0;text-align:start;text-decoration:none;line-height:normal;letter-spacing:normal;word-spacing:normal;text-transform:none;direction:ltr;block-progression:tb;writing-mode:lr-tb;text-anchor:start;baseline-shift:baseline;color:#000000;fill:#ee0028;fill-opacity:1;stroke:none;stroke-width:1px;marker:none;visibility:visible;display:inline;overflow:visible;enable-background:accumulate;font-family:Sans;-inkscape-font-specification:Sans" d="m 1475.7812,430.15625 0,1 7.4688,0 0,-1 -7.4688,0 z m -1.6562,2.53125 0,1 10.7812,0 0,-1 -10.7812,0 z m -0.625,2.5 0,1 12.0625,0 0,-1 -12.0625,0 z m 0.625,2.53125 0,1 10.7812,0 0,-1 -10.7812,0 z m 0,2.53125 0,1 10.7812,0 0,-1 -10.7812,0 z" id="path3096-8-61" inkscape:connector-curvature="0"/>
    </clipPath>
    <clipPath clipPathUnits="userSpaceOnUse" id="clipPath3094-8-2-5">
      <path style="font-size:medium;font-style:normal;font-variant:normal;font-weight:normal;font-stretch:normal;text-indent:0;text-align:start;text-decoration:none;line-height:normal;letter-spacing:normal;word-spacing:normal;text-transform:none;direction:ltr;block-progression:tb;writing-mode:lr-tb;text-anchor:start;baseline-shift:baseline;color:#000000;fill:#ee0028;fill-opacity:1;stroke:none;stroke-width:1px;marker:none;visibility:visible;display:inline;overflow:visible;enable-background:accumulate;font-family:Sans;-inkscape-font-specification:Sans" d="m 1475.7812,430.15625 0,1 7.4688,0 0,-1 -7.4688,0 z m -1.6562,2.53125 0,1 10.7812,0 0,-1 -10.7812,0 z m -0.625,2.5 0,1 12.0625,0 0,-1 -12.0625,0 z m 0.625,2.53125 0,1 10.7812,0 0,-1 -10.7812,0 z m 0,2.53125 0,1 10.7812,0 0,-1 -10.7812,0 z" id="path3096-8-4-4" inkscape:connector-curvature="0"/>
    </clipPath>
  </defs>
  <sodipodi:namedview id="base" pagecolor="#ffffff" bordercolor="#666666" borderopacity="1.0" inkscape:pageopacity="0.0" inkscape:pageshadow="2" inkscape:zoom="1.979899" inkscape:cx="120.66649" inkscape:cy="91.541357" inkscape:document-units="px" inkscape:current-layer="text4911" showgrid="false" inkscape:window-width="667" inkscape:window-height="689" inkscape:window-x="683" inkscape:window-y="0" inkscape:window-maximized="0"/>
  
  <g inkscape:label="Layer 1" inkscape:groupmode="layer" id="layer1" transform="translate(0,-952.36218)">
    <g transform="matrix(0.76987616,0,0,0.76987616,1106.2265,668.57624)" id="g4919">
      <g id="g4907" transform="translate(-1348.2549,94.512679)">
        <rect style="fill:#f9f9f9;fill-opacity:1;fill-rule:evenodd;stroke:#000000;stroke-width:0.80000001;stroke-linecap:round;stroke-linejoin:round;stroke-miterlimit:4;stroke-opacity:1;stroke-dasharray:none;stroke-dashoffset:0" id="rect4909" width="63.214283" height="40.714283" x="-73.878845" y="317.7287" ry="3.5986683" rx="3.5986683"/>
        <g style="font-size:23.0791626px;font-style:normal;font-weight:normal;line-height:125%;letter-spacing:0px;word-spacing:0px;fill:#4d4d4d;fill-opacity:1;stroke:none;font-family:Sans;-inkscape-font-specification:'Segoe WP Black, Ultra-Bold'" id="text4911">
          <path d="m -54.939047,346.53237 c -0.187832,0.0676 -0.430118,0.14462 -0.726858,0.23101 -0.296767,0.0864 -0.640475,0.16528 -1.031125,0.23666 -0.390675,0.0714 -0.826414,0.13147 -1.307218,0.1803 -0.480826,0.0488 -1.002962,0.0732 -1.566408,0.0732 -1.434943,0 -2.674545,-0.21411 -3.718811,-0.64234 -1.044276,-0.42822 -1.904485,-1.00671 -2.580629,-1.73544 -0.676149,-0.72874 -1.177625,-1.5758 -1.504428,-2.54119 -0.326805,-0.96538 -0.490207,-1.98899 -0.490206,-3.07084 -1e-6,-1.27716 0.206599,-2.44914 0.619801,-3.51596 0.4132,-1.0668 1.004828,-1.98711 1.774887,-2.76094 0.770053,-0.7738 1.701633,-1.37482 2.794742,-1.80306 1.093098,-0.42821 2.319553,-0.64232 3.679369,-0.64234 0.939083,2e-5 1.748581,0.0582 2.428496,0.17467 0.679891,0.11647 1.222686,0.22728 1.628388,0.33244 l 0,4.49638 c -0.165294,-0.0976 -0.36626,-0.1972 -0.602898,-0.29863 -0.236664,-0.10141 -0.503367,-0.19344 -0.800108,-0.27609 -0.296765,-0.0826 -0.621691,-0.15025 -0.974779,-0.20285 -0.35311,-0.0526 -0.728747,-0.0789 -1.126912,-0.0789 -0.563466,1e-5 -1.104383,0.0808 -1.622754,0.24229 -0.518387,0.16153 -0.972908,0.41509 -1.363564,0.76066 -0.390669,0.3456 -0.702448,0.78509 -0.935337,1.31849 -0.232901,0.53341 -0.349348,1.16824 -0.349343,1.90448 -5e-6,0.62357 0.0939,1.19266 0.281729,1.70727 0.187812,0.51463 0.462027,0.95413 0.822645,1.31849 0.360605,0.36437 0.801979,0.64798 1.324122,0.85082 0.522128,0.20285 1.113756,0.30427 1.774887,0.30426 0.38314,10e-6 0.749386,-0.0282 1.09874,-0.0845 0.349331,-0.0563 0.674257,-0.12959 0.974779,-0.21975 0.300497,-0.0901 0.57659,-0.18782 0.82828,-0.293 0.251664,-0.10517 0.475168,-0.20659 0.670513,-0.30427 z" style="font-variant:normal;font-weight:800;font-stretch:normal;text-align:start;line-height:125%;writing-mode:lr-tb;text-anchor:start;fill:#4d4d4d;font-family:Segoe WP Black;-inkscape-font-specification:'Segoe WP Black, Ultra-Bold'" id="path3003"/>
          <path d="m -37.032412,338.84683 c -1.7e-5,1.28468 -0.210374,2.44352 -0.631071,3.47652 -0.42073,1.03301 -1.001089,1.91575 -1.741079,2.64824 -0.74002,0.7325 -1.607741,1.29595 -2.603168,1.69037 -0.99545,0.39442 -2.067893,0.59163 -3.217334,0.59163 -1.111894,0 -2.158044,-0.18782 -3.138451,-0.56346 -0.980418,-0.37563 -1.83687,-0.91467 -2.569359,-1.61711 -0.732496,-0.70244 -1.310977,-1.55702 -1.735445,-2.56373 -0.424471,-1.0067 -0.636706,-2.14113 -0.636706,-3.40327 0,-1.26214 0.202844,-2.4191 0.608533,-3.47089 0.405687,-1.05178 0.972899,-1.95518 1.701637,-2.71023 0.728733,-0.75501 1.602089,-1.34101 2.620071,-1.75798 1.017971,-0.41694 2.139248,-0.62542 3.363833,-0.62544 1.156953,2e-5 2.223763,0.19347 3.200431,0.58036 0.976644,0.38692 1.818071,0.93911 2.524284,1.65656 0.706182,0.71748 1.258369,1.58896 1.65656,2.61444 0.398159,1.0255 0.597247,2.17683 0.597264,3.45399 z m -5.161258,0.13523 c -1.2e-5,-0.69117 -0.0695,-1.30346 -0.208479,-1.83687 -0.138997,-0.5334 -0.334328,-0.98228 -0.585994,-1.34666 -0.251688,-0.36436 -0.552198,-0.64045 -0.90153,-0.82828 -0.349353,-0.18781 -0.738137,-0.28172 -1.166354,-0.28173 -0.548439,1e-5 -1.017985,0.1127 -1.40864,0.33807 -0.39067,0.2254 -0.709962,0.52966 -0.957876,0.9128 -0.247927,0.38316 -0.428233,0.83017 -0.540918,1.34103 -0.112697,0.51087 -0.169042,1.05555 -0.169037,1.63402 -5e-6,0.75128 0.08263,1.39174 0.247921,1.92139 0.165274,0.52965 0.3869,0.96163 0.664878,1.29594 0.277965,0.33433 0.597256,0.57849 0.957876,0.7325 0.360604,0.15401 0.736241,0.23102 1.126912,0.23101 0.375628,10e-6 0.739996,-0.0808 1.093105,-0.24228 0.353089,-0.16152 0.666746,-0.40944 0.940972,-0.74376 0.274204,-0.33432 0.493951,-0.76066 0.659243,-1.27905 0.165269,-0.51837 0.247909,-1.13442 0.247921,-1.84813 z" style="font-variant:normal;font-weight:800;font-stretch:normal;text-align:start;line-height:125%;writing-mode:lr-tb;text-anchor:start;fill:#4d4d4d;font-family:Segoe WP Black;-inkscape-font-specification:'Segoe WP Black, Ultra-Bold'" id="path3005"/>
          <path d="m -19.497657,338.68906 c -1.6e-5,1.26215 -0.200982,2.40408 -0.602898,3.42581 -0.401948,1.02174 -0.969159,1.89134 -1.701637,2.6088 -0.732507,0.71747 -1.615254,1.27154 -2.648244,1.6622 -1.033014,0.39066 -2.180585,0.58599 -3.442717,0.58599 l -6.840357,0 0,-16.15992 6.693859,0 c 1.089339,2e-5 2.056604,0.0921 2.901799,0.27609 0.845172,0.18408 1.585177,0.44515 2.220017,0.78321 0.634813,0.33809 1.168217,0.74378 1.600215,1.21706 0.431968,0.47332 0.783188,1.00297 1.053663,1.58895 0.270443,0.58601 0.465774,1.21708 0.585994,1.89321 0.120188,0.67616 0.18029,1.38236 0.180306,2.1186 z m -5.172527,0.0451 c -1.1e-5,-0.52588 -0.07889,-1.03675 -0.236651,-1.5326 -0.157779,-0.49583 -0.398187,-0.93532 -0.721224,-1.31848 -0.323059,-0.38314 -0.732503,-0.68929 -1.228335,-0.91844 -0.49585,-0.22912 -1.081844,-0.34369 -1.757983,-0.34371 l -1.250872,0 0,8.542 1.363564,0 c 0.593498,0 1.126903,-0.10705 1.600215,-0.32117 0.473293,-0.21411 0.875225,-0.51462 1.205796,-0.90153 0.33055,-0.3869 0.584105,-0.85269 0.760666,-1.39737 0.176538,-0.54467 0.264813,-1.14757 0.264824,-1.8087 z" style="font-variant:normal;font-weight:800;font-stretch:normal;text-align:start;line-height:125%;writing-mode:lr-tb;text-anchor:start;fill:#4d4d4d;font-family:Segoe WP Black;-inkscape-font-specification:'Segoe WP Black, Ultra-Bold'" id="path3007"/>
        </g>
        <rect rx="3.5986683" ry="3.5986683" y="317.7287" x="-16.050562" height="40.714283" width="44.527412" id="rect4915" style="fill:#ff9900;fill-opacity:1;fill-rule:evenodd;stroke:#000000;stroke-width:0.80000001;stroke-linecap:round;stroke-linejoin:round;stroke-miterlimit:4;stroke-opacity:1;stroke-dasharray:none;stroke-dashoffset:0"/>
      </g>
      <g style="fill:#ffffff" inkscape:label="Layer 1" id="layer1-3" transform="matrix(0.82042603,0,0,0.82042603,-1384.25,-388.30249)">
        <path style="font-size:medium;font-style:normal;font-variant:normal;font-weight:normal;font-stretch:normal;text-indent:0;text-align:start;text-decoration:none;line-height:normal;letter-spacing:normal;word-spacing:normal;text-transform:none;direction:ltr;block-progression:tb;writing-mode:lr-tb;text-anchor:start;baseline-shift:baseline;color:#000000;fill:#ffffff;fill-opacity:1;stroke:none;stroke-width:1.5;marker:none;visibility:visible;display:inline;overflow:visible;enable-background:accumulate;font-family:Sans;-inkscape-font-specification:Sans" d="m 28.368105,989.04943 a 1.0252338,1.0252338 0 0 0 0.295819,2.02893 l 16.69718,0 -0.76087,2.07141 -13.230955,0 a 1.0146089,1.0146089 0 0 0 -0.211203,0 1.0199932,1.0199932 0 0 0 0.211203,2.02894 l 12.512225,0 -0.760702,2.11354 a 1.0146089,1.0146089 0 0 0 -0.25368,-0.0421 l -7.947001,0 a 1.0146089,1.0146089 0 0 0 -0.211372,0 1.0200547,1.0200547 0 0 0 0.211372,2.02909 l 7.48195,0 -4.14248,11.37086 a 1.0146089,1.0146089 0 0 0 0.972242,1.395 l 15.090823,0 a 1.0146089,1.0146089 0 0 0 1.014382,-1.0992 c -0.01854,-0.2336 -0.04214,-0.3568 -0.04214,-0.4226 0,-3.1871 2.561744,-5.749 5.748838,-5.749 3.186756,0 5.748837,2.5619 5.748837,5.749 0,0.061 -0.02528,0.1787 -0.04214,0.4226 a 1.0146089,1.0146089 0 0 0 1.01455,1.0992 l 3.719905,0 a 1.0146089,1.0146089 0 0 0 1.014551,-1.0146 l 0,-7.6933 a 1.0146089,1.0146089 0 0 0 -0.76104,-1.0145 l -7.016898,-1.8599 -6.72108,-10.94828 a 1.0146089,1.0146089 0 0 0 -0.845487,-0.46488 l -10.06055,0 -18.430293,0 a 1.0146089,1.0146089 0 0 0 -0.211203,0 1.0199932,1.0199932 0 0 0 -0.08428,0 z m 19.191163,2.02893 9.046,0 6.636632,10.82134 a 1.0146089,1.0146089 0 0 0 0.591638,0.4651 l 6.636632,1.7331 0,5.9179 -1.77542,0 c -0.276773,-4.0354 -3.54764,-7.2706 -7.651014,-7.2706 -4.106072,0 -7.420258,3.2318 -7.693491,7.2706 l -12.638979,0 6.848002,-18.93744 z m 7.355195,1.77543 -5.283955,0.0843 a 1.0146089,1.0146089 0 0 0 -0.972242,0.76087 l -1.859868,6.93234 a 1.0146089,1.0146089 0 0 0 0.972073,1.2683 l 10.356538,0 a 1.0146089,1.0146089 0 0 0 0.929934,-1.395 l -3.170406,-7.05915 a 1.0146089,1.0146089 0 0 0 -0.972074,-0.5918 z m -0.634115,2.0291 2.282612,4.98795 -7.481951,0 1.31037,-4.90351 3.888969,-0.0843 z m 6.890143,12.04711 c -2.401108,0 -4.353852,1.9952 -4.353852,4.3963 0,2.401 1.952744,4.3539 4.353852,4.3539 2.401108,0 4.353852,-1.9529 4.353852,-4.3539 0,-2.4011 -1.952744,-4.3963 -4.353852,-4.3963 z m 0,2.0291 c 1.30447,0 2.367228,1.0626 2.367228,2.3672 0,1.3045 -1.062758,2.2827 -2.367228,2.2827 -1.30447,0 -2.367228,-0.9782 -2.367228,-2.2827 0,-1.3046 1.062758,-2.3672 2.367228,-2.3672 z" id="path4694-5-2" inkscape:connector-curvature="0"/>
      </g>
    </g>
  </g>

	
	
	<metadata>
		<rdf:RDF xmlns:rdf="http://www.w3.org/1999/02/22-rdf-syntax-ns#" xmlns:rdfs="http://www.w3.org/2000/01/rdf-schema#" xmlns:dc="http://purl.org/dc/elements/1.1/">
			<rdf:Description about="https://iconscout.com/legal#licenses" dc:title="Cod, Credit, Debit, Card, Bank, Transaction" dc:description="Cod, Credit, Debit, Card, Bank, Transaction" dc:publisher="Iconscout" dc:date="2016-12-14" dc:format="image/svg+xml" dc:language="en">
				<dc:creator>
					<rdf:Bag>
						<rdf:li>Dalpat Prajapati</rdf:li>
					</rdf:Bag>
				</dc:creator>
			</rdf:Description>
		</rdf:RDF>
    </metadata></svg>
